<?xml version="1.0" standalone="no"?><!DOCTYPE svg PUBLIC "-//W3C//DTD SVG 1.1//EN" "http://www.w3.org/Graphics/SVG/1.1/DTD/svg11.dtd"><svg class="icon" width="64px" height="64.00px" viewBox="0 0 1024 1024" version="1.1" xmlns="http://www.w3.org/2000/svg"><path fill="#38ADFF" d="M410.425668 318.398119c0 56.936671-46.44381 103.38048-103.38048 103.38048s-103.38048-46.44381-103.38048-103.38048 46.44381-103.38048 103.38048-103.38048S410.425668 261.461448 410.425668 318.398119zM341.448009 318.398119c0-19.093566-15.48127-34.402822-34.402822-34.402822s-34.402822 15.48127-34.402822 34.402822c0 18.921552 15.48127 34.402822 34.402822 34.402822C325.966739 352.972955 341.448009 337.491685 341.448009 318.398119zM616.154544 183.71107l312.377625 317.19402c19.953637 19.437594 31.478582 47.30388 31.478582 76.718293 0 29.242399-11.352931 56.936671-31.134554 76.030237L645.568957 929.564253c-39.219217 38.015118-113.873341 38.187133-153.264572-0.172014L140.1915 585.01999c-60.720981-59.00084-76.202251-82.566773-76.202251-162.553334l0-151.544431c0-142.943726 29.070385-206.760961 201.256509-206.760961l142.083655 0C494.712582 63.989249 545.628759 114.217369 616.154544 183.71107zM597.57702 880.024189l283.30724-275.738619c6.536536-6.364522 10.148833-15.997312 10.148833-26.662187 0-10.836889-3.78431-20.813707-11.180917-27.866286L596.372921 260.945406 567.646565 232.907106c-70.181757-69.321687-103.724509-99.940198-160.489165-99.940198l-142.083655 0c-123.334117 0-132.278851 19.093566-132.278851 137.783303l0 151.544431c0 54.528473 1.548127 61.065009 55.388544 113.185285l352.112884 344.544263c6.880564 6.70855 17.201411 10.492861 28.554342 10.492861C580.203595 890.51705 590.696456 886.73274 597.57702 880.024189z" /></svg>